# xmcd CD database file
#
# Track frame offsets:
#	150
#	21976
#	37176
#	62810
#	80930
#	97712
#	116855
#	135031
#	149991
#	167791
#	188248
#	203795
#	222844
#	241755
#	261940
#	276815
#
# Disc length: 3889 seconds
#
# Revision: 0
# Processed by: cddbd v1.5.2PL0 Copyright (c) Steve Scherf et al.
# Submitted via: CDex 1.51
#
DISCID=f30f2f10
DTITLE=Big Creek Slim - Bad Luck Child Greasy Chicken Sessions Vol. 2
DYEAR=2017
DGENRE=Blues
TTITLE0=Bad Luck Child
TTITLE1=Traveling Riverside Blues
TTITLE2=Cherry Ball
TTITLE3=No Good Blues
TTITLE4=Milkcow's Calf Blues
TTITLE5=Long Way From Home
TTITLE6=Crawlin' King Snake
TTITLE7=Friars Point Blues
TTITLE8=Hammock Blues
TTITLE9=Rambling On My Mind
TTITLE10=A Stranger Everywhere I Go
TTITLE11=Maggie Campbell Blues
TTITLE12=Woman Don't Lie
TTITLE13=Low Down Rainy Memphis Blues
TTITLE14=Dirty Mother For You
TTITLE15=Keep On Rockin'
EXTD=YEAR: 2017
EXTT0=
EXTT1=
EXTT2=
EXTT3=
EXTT4=
EXTT5=
EXTT6=
EXTT7=
EXTT8=
EXTT9=
EXTT10=
EXTT11=
EXTT12=
EXTT13=
EXTT14=
EXTT15=
PLAYORDER=
